<svg xmlns="http://www.w3.org/2000/svg" xmlns:xlink="http://www.w3.org/1999/xlink" width="100" zoomAndPan="magnify" viewBox="0 0 75 74.999997" height="100" preserveAspectRatio="xMidYMid meet" version="1.0"><defs><g/><clipPath id="0af6c34cf2"><path d="M 18.1875 1.5 L 56.4375 1.5 L 56.4375 43.5 L 18.1875 43.5 Z M 18.1875 1.5 " clip-rule="nonzero"/></clipPath></defs><g clip-path="url(#0af6c34cf2)"><path fill="#000000" d="M 56.246094 34.964844 L 54.4375 15.871094 C 54.296875 14.375 53.054688 13.238281 51.558594 13.238281 L 47.570312 13.238281 L 47.570312 12.105469 C 47.570312 6.417969 42.972656 1.796875 37.3125 1.796875 C 31.652344 1.796875 27.050781 6.417969 27.050781 12.105469 L 27.050781 13.238281 L 23.0625 13.238281 C 21.566406 13.238281 20.324219 14.367188 20.183594 15.871094 L 18.375 34.964844 C 18.171875 37.09375 18.878906 39.210938 20.308594 40.792969 C 21.734375 42.375 23.773438 43.277344 25.898438 43.277344 L 48.730469 43.277344 C 50.855469 43.277344 52.894531 42.367188 54.320312 40.792969 C 55.746094 39.210938 56.449219 37.085938 56.246094 34.964844 Z M 28.8125 12.105469 C 28.8125 7.398438 32.625 3.566406 37.3125 3.566406 C 41.996094 3.566406 45.808594 7.398438 45.808594 12.105469 L 45.808594 13.238281 L 28.8125 13.238281 Z M 47.570312 22.328125 C 47.570312 28.015625 42.972656 32.640625 37.3125 32.640625 C 31.652344 32.640625 27.050781 28.015625 27.050781 22.328125 L 27.050781 20.308594 C 27.050781 19.820312 27.445312 19.421875 27.933594 19.421875 C 28.417969 19.421875 28.8125 19.820312 28.8125 20.308594 L 28.8125 22.328125 C 28.8125 27.039062 32.625 30.867188 37.3125 30.867188 C 41.996094 30.867188 45.808594 27.039062 45.808594 22.328125 L 45.808594 20.308594 C 45.808594 19.820312 46.203125 19.421875 46.691406 19.421875 C 47.175781 19.421875 47.570312 19.820312 47.570312 20.308594 Z M 47.570312 22.328125 " fill-opacity="1" fill-rule="nonzero"/></g><g fill="#000000" fill-opacity="1"><g transform="translate(4.258036, 57.517173)"><g><path d="M 3.65625 -5.4375 C 4.195312 -5.4375 4.632812 -5.453125 4.96875 -5.484375 C 5.300781 -5.515625 5.554688 -5.582031 5.734375 -5.6875 C 5.921875 -5.800781 6.050781 -5.957031 6.125 -6.15625 C 6.207031 -6.363281 6.269531 -6.640625 6.3125 -6.984375 L 6.78125 -6.984375 L 6.78125 -3.25 L 6.3125 -3.25 C 6.257812 -3.59375 6.191406 -3.863281 6.109375 -4.0625 C 6.023438 -4.269531 5.890625 -4.425781 5.703125 -4.53125 C 5.515625 -4.632812 5.257812 -4.703125 4.9375 -4.734375 C 4.625 -4.765625 4.195312 -4.78125 3.65625 -4.78125 L 3.65625 -2.15625 C 3.65625 -1.882812 3.691406 -1.65625 3.765625 -1.46875 C 3.835938 -1.28125 3.957031 -1.128906 4.125 -1.015625 C 4.300781 -0.898438 4.53125 -0.816406 4.8125 -0.765625 C 5.09375 -0.722656 5.4375 -0.703125 5.84375 -0.703125 C 6.320312 -0.703125 6.726562 -0.734375 7.0625 -0.796875 C 7.40625 -0.867188 7.6875 -0.988281 7.90625 -1.15625 C 8.125 -1.332031 8.300781 -1.5625 8.4375 -1.84375 C 8.570312 -2.125 8.6875 -2.484375 8.78125 -2.921875 L 9.296875 -2.921875 L 9.09375 0 L 0.453125 0 L 0.453125 -0.515625 C 0.722656 -0.515625 0.945312 -0.535156 1.125 -0.578125 C 1.3125 -0.628906 1.453125 -0.703125 1.546875 -0.796875 C 1.640625 -0.898438 1.703125 -1.046875 1.734375 -1.234375 C 1.765625 -1.421875 1.78125 -1.664062 1.78125 -1.96875 L 1.78125 -7.859375 C 1.78125 -8.148438 1.765625 -8.382812 1.734375 -8.5625 C 1.710938 -8.75 1.65625 -8.894531 1.5625 -9 C 1.476562 -9.113281 1.359375 -9.1875 1.203125 -9.21875 C 1.046875 -9.257812 0.84375 -9.289062 0.59375 -9.3125 L 0.59375 -9.8125 L 8.640625 -9.8125 L 8.734375 -7.3125 L 8.1875 -7.3125 C 8.132812 -7.675781 8.050781 -7.972656 7.9375 -8.203125 C 7.832031 -8.441406 7.679688 -8.628906 7.484375 -8.765625 C 7.285156 -8.898438 7.03125 -8.992188 6.71875 -9.046875 C 6.414062 -9.109375 6.035156 -9.140625 5.578125 -9.140625 L 4.140625 -9.140625 C 3.921875 -9.140625 3.785156 -9.109375 3.734375 -9.046875 C 3.679688 -8.992188 3.65625 -8.867188 3.65625 -8.671875 Z M 3.65625 -5.4375 "/></g></g></g><g fill="#000000" fill-opacity="1"><g transform="translate(13.939144, 57.517173)"><g><path d="M 0.84375 -3.09375 L 0.84375 -4.28125 L 4.984375 -4.28125 L 4.984375 -3.09375 Z M 0.84375 -3.09375 "/></g></g></g><g fill="#000000" fill-opacity="1"><g transform="translate(19.709578, 57.517173)"><g><path d="M 0.6875 -3.25 L 1.1875 -3.25 C 1.300781 -2.445312 1.617188 -1.8125 2.140625 -1.34375 C 2.671875 -0.882812 3.328125 -0.65625 4.109375 -0.65625 C 4.421875 -0.65625 4.707031 -0.691406 4.96875 -0.765625 C 5.238281 -0.835938 5.460938 -0.941406 5.640625 -1.078125 C 5.828125 -1.222656 5.972656 -1.390625 6.078125 -1.578125 C 6.179688 -1.773438 6.234375 -1.992188 6.234375 -2.234375 C 6.234375 -2.429688 6.203125 -2.601562 6.140625 -2.75 C 6.078125 -2.90625 5.957031 -3.050781 5.78125 -3.1875 C 5.601562 -3.332031 5.359375 -3.476562 5.046875 -3.625 C 4.734375 -3.769531 4.332031 -3.9375 3.84375 -4.125 C 2.84375 -4.5 2.101562 -4.9375 1.625 -5.4375 C 1.15625 -5.945312 0.921875 -6.546875 0.921875 -7.234375 C 0.921875 -7.640625 0.992188 -8.003906 1.140625 -8.328125 C 1.296875 -8.660156 1.507812 -8.945312 1.78125 -9.1875 C 2.0625 -9.425781 2.394531 -9.609375 2.78125 -9.734375 C 3.164062 -9.867188 3.59375 -9.9375 4.0625 -9.9375 C 4.5 -9.9375 4.90625 -9.867188 5.28125 -9.734375 C 5.664062 -9.597656 6.046875 -9.394531 6.421875 -9.125 L 6.65625 -9.765625 L 6.96875 -9.765625 L 7.109375 -7.015625 L 6.609375 -7.015625 C 6.398438 -7.710938 6.078125 -8.242188 5.640625 -8.609375 C 5.210938 -8.984375 4.710938 -9.171875 4.140625 -9.171875 C 3.617188 -9.171875 3.191406 -9.039062 2.859375 -8.78125 C 2.535156 -8.519531 2.375 -8.1875 2.375 -7.78125 C 2.375 -7.601562 2.398438 -7.441406 2.453125 -7.296875 C 2.515625 -7.160156 2.625 -7.023438 2.78125 -6.890625 C 2.945312 -6.765625 3.171875 -6.632812 3.453125 -6.5 C 3.734375 -6.375 4.09375 -6.226562 4.53125 -6.0625 C 5.132812 -5.832031 5.644531 -5.601562 6.0625 -5.375 C 6.476562 -5.144531 6.820312 -4.894531 7.09375 -4.625 C 7.363281 -4.351562 7.5625 -4.066406 7.6875 -3.765625 C 7.8125 -3.472656 7.875 -3.148438 7.875 -2.796875 C 7.875 -2.359375 7.78125 -1.960938 7.59375 -1.609375 C 7.40625 -1.253906 7.144531 -0.945312 6.8125 -0.6875 C 6.476562 -0.4375 6.078125 -0.238281 5.609375 -0.09375 C 5.148438 0.0507812 4.640625 0.125 4.078125 0.125 C 3.566406 0.125 3.109375 0.0546875 2.703125 -0.078125 C 2.296875 -0.222656 1.875 -0.453125 1.4375 -0.765625 L 1.1875 0 L 0.875 0 Z M 0.6875 -3.25 "/></g></g></g><g fill="#000000" fill-opacity="1"><g transform="translate(28.104106, 57.517173)"><g><path d="M 10.390625 -7.015625 L 9.84375 -7.015625 C 9.8125 -7.429688 9.75 -7.773438 9.65625 -8.046875 C 9.5625 -8.328125 9.421875 -8.550781 9.234375 -8.71875 C 9.054688 -8.882812 8.84375 -9 8.59375 -9.0625 C 8.34375 -9.125 8.046875 -9.15625 7.703125 -9.15625 C 7.367188 -9.15625 7.101562 -9.144531 6.90625 -9.125 C 6.707031 -9.113281 6.550781 -9.09375 6.4375 -9.0625 C 6.332031 -9.039062 6.265625 -9.003906 6.234375 -8.953125 C 6.203125 -8.898438 6.1875 -8.835938 6.1875 -8.765625 L 6.1875 -2.078125 C 6.1875 -1.804688 6.203125 -1.570312 6.234375 -1.375 C 6.273438 -1.175781 6.351562 -1.015625 6.46875 -0.890625 C 6.59375 -0.773438 6.769531 -0.679688 7 -0.609375 C 7.226562 -0.546875 7.53125 -0.515625 7.90625 -0.515625 L 7.90625 0 L 2.5625 0 L 2.5625 -0.515625 C 2.945312 -0.515625 3.253906 -0.546875 3.484375 -0.609375 C 3.710938 -0.679688 3.882812 -0.773438 4 -0.890625 C 4.125 -1.015625 4.207031 -1.175781 4.25 -1.375 C 4.289062 -1.570312 4.3125 -1.804688 4.3125 -2.078125 L 4.3125 -8.765625 C 4.3125 -8.835938 4.296875 -8.898438 4.265625 -8.953125 C 4.234375 -9.003906 4.171875 -9.039062 4.078125 -9.0625 C 3.984375 -9.09375 3.847656 -9.113281 3.671875 -9.125 C 3.503906 -9.144531 3.28125 -9.15625 3 -9.15625 C 2.6875 -9.15625 2.390625 -9.140625 2.109375 -9.109375 C 1.835938 -9.078125 1.59375 -8.988281 1.375 -8.84375 C 1.164062 -8.707031 0.992188 -8.5 0.859375 -8.21875 C 0.722656 -7.9375 0.65625 -7.535156 0.65625 -7.015625 L 0.15625 -7.015625 L 0.28125 -9.8125 L 10.265625 -9.8125 Z M 10.390625 -7.015625 "/></g></g></g><g fill="#000000" fill-opacity="1"><g transform="translate(38.587731, 57.517173)"><g><path d="M 6.015625 -9.9375 C 6.785156 -9.9375 7.5 -9.804688 8.15625 -9.546875 C 8.820312 -9.285156 9.398438 -8.925781 9.890625 -8.46875 C 10.378906 -8.007812 10.765625 -7.46875 11.046875 -6.84375 C 11.328125 -6.226562 11.46875 -5.554688 11.46875 -4.828125 C 11.46875 -4.140625 11.320312 -3.492188 11.03125 -2.890625 C 10.75 -2.285156 10.363281 -1.757812 9.875 -1.3125 C 9.382812 -0.875 8.804688 -0.523438 8.140625 -0.265625 C 7.484375 -0.00390625 6.773438 0.125 6.015625 0.125 C 5.265625 0.125 4.554688 -0.00390625 3.890625 -0.265625 C 3.222656 -0.523438 2.644531 -0.875 2.15625 -1.3125 C 1.664062 -1.757812 1.28125 -2.285156 1 -2.890625 C 0.71875 -3.492188 0.578125 -4.140625 0.578125 -4.828125 C 0.578125 -5.554688 0.71875 -6.226562 1 -6.84375 C 1.28125 -7.46875 1.660156 -8.007812 2.140625 -8.46875 C 2.628906 -8.925781 3.207031 -9.285156 3.875 -9.546875 C 4.539062 -9.804688 5.253906 -9.9375 6.015625 -9.9375 Z M 6.015625 -0.703125 C 6.503906 -0.703125 6.945312 -0.796875 7.34375 -0.984375 C 7.75 -1.179688 8.09375 -1.453125 8.375 -1.796875 C 8.65625 -2.148438 8.867188 -2.578125 9.015625 -3.078125 C 9.171875 -3.585938 9.25 -4.160156 9.25 -4.796875 C 9.25 -5.453125 9.171875 -6.046875 9.015625 -6.578125 C 8.867188 -7.109375 8.65625 -7.5625 8.375 -7.9375 C 8.09375 -8.320312 7.75 -8.613281 7.34375 -8.8125 C 6.945312 -9.007812 6.503906 -9.109375 6.015625 -9.109375 C 5.515625 -9.109375 5.066406 -9.007812 4.671875 -8.8125 C 4.273438 -8.613281 3.9375 -8.320312 3.65625 -7.9375 C 3.375 -7.5625 3.160156 -7.109375 3.015625 -6.578125 C 2.867188 -6.046875 2.796875 -5.453125 2.796875 -4.796875 C 2.796875 -4.160156 2.867188 -3.585938 3.015625 -3.078125 C 3.160156 -2.578125 3.375 -2.148438 3.65625 -1.796875 C 3.9375 -1.453125 4.273438 -1.179688 4.671875 -0.984375 C 5.066406 -0.796875 5.515625 -0.703125 6.015625 -0.703125 Z M 6.015625 -0.703125 "/></g></g></g><g fill="#000000" fill-opacity="1"><g transform="translate(50.548995, 57.517173)"><g><path d="M 8.859375 -7.359375 C 8.859375 -6.648438 8.65625 -6.054688 8.25 -5.578125 C 7.84375 -5.109375 7.191406 -4.789062 6.296875 -4.625 L 9.25 -1.234375 C 9.457031 -0.992188 9.703125 -0.8125 9.984375 -0.6875 C 10.265625 -0.570312 10.550781 -0.515625 10.84375 -0.515625 L 10.84375 0 L 7.8125 0 L 4.65625 -3.875 C 4.4375 -4.132812 4.25 -4.304688 4.09375 -4.390625 C 3.9375 -4.484375 3.789062 -4.53125 3.65625 -4.53125 L 3.65625 -2.03125 C 3.65625 -1.71875 3.675781 -1.457031 3.71875 -1.25 C 3.757812 -1.050781 3.84375 -0.894531 3.96875 -0.78125 C 4.101562 -0.675781 4.289062 -0.601562 4.53125 -0.5625 C 4.769531 -0.53125 5.097656 -0.515625 5.515625 -0.515625 L 5.515625 0 L 0.453125 0 L 0.453125 -0.515625 C 0.722656 -0.515625 0.945312 -0.53125 1.125 -0.5625 C 1.300781 -0.601562 1.4375 -0.675781 1.53125 -0.78125 C 1.632812 -0.882812 1.703125 -1.03125 1.734375 -1.21875 C 1.765625 -1.414062 1.78125 -1.664062 1.78125 -1.96875 L 1.78125 -7.859375 C 1.78125 -8.148438 1.765625 -8.382812 1.734375 -8.5625 C 1.710938 -8.75 1.660156 -8.894531 1.578125 -9 C 1.492188 -9.113281 1.375 -9.1875 1.21875 -9.21875 C 1.0625 -9.257812 0.851562 -9.289062 0.59375 -9.3125 L 0.59375 -9.8125 L 5 -9.8125 C 6.226562 -9.8125 7.175781 -9.59375 7.84375 -9.15625 C 8.519531 -8.726562 8.859375 -8.128906 8.859375 -7.359375 Z M 3.65625 -5.296875 L 4.484375 -5.296875 C 5.285156 -5.296875 5.882812 -5.445312 6.28125 -5.75 C 6.675781 -6.0625 6.875 -6.578125 6.875 -7.296875 C 6.875 -7.835938 6.707031 -8.273438 6.375 -8.609375 C 6.039062 -8.941406 5.582031 -9.109375 5 -9.109375 L 3.890625 -9.109375 C 3.734375 -9.109375 3.65625 -9.035156 3.65625 -8.890625 Z M 3.65625 -5.296875 "/></g></g></g><g fill="#000000" fill-opacity="1"><g transform="translate(60.879747, 57.517173)"><g><path d="M 3.65625 -5.4375 C 4.195312 -5.4375 4.632812 -5.453125 4.96875 -5.484375 C 5.300781 -5.515625 5.554688 -5.582031 5.734375 -5.6875 C 5.921875 -5.800781 6.050781 -5.957031 6.125 -6.15625 C 6.207031 -6.363281 6.269531 -6.640625 6.3125 -6.984375 L 6.78125 -6.984375 L 6.78125 -3.25 L 6.3125 -3.25 C 6.257812 -3.59375 6.191406 -3.863281 6.109375 -4.0625 C 6.023438 -4.269531 5.890625 -4.425781 5.703125 -4.53125 C 5.515625 -4.632812 5.257812 -4.703125 4.9375 -4.734375 C 4.625 -4.765625 4.195312 -4.78125 3.65625 -4.78125 L 3.65625 -2.15625 C 3.65625 -1.882812 3.691406 -1.65625 3.765625 -1.46875 C 3.835938 -1.28125 3.957031 -1.128906 4.125 -1.015625 C 4.300781 -0.898438 4.53125 -0.816406 4.8125 -0.765625 C 5.09375 -0.722656 5.4375 -0.703125 5.84375 -0.703125 C 6.320312 -0.703125 6.726562 -0.734375 7.0625 -0.796875 C 7.40625 -0.867188 7.6875 -0.988281 7.90625 -1.15625 C 8.125 -1.332031 8.300781 -1.5625 8.4375 -1.84375 C 8.570312 -2.125 8.6875 -2.484375 8.78125 -2.921875 L 9.296875 -2.921875 L 9.09375 0 L 0.453125 0 L 0.453125 -0.515625 C 0.722656 -0.515625 0.945312 -0.535156 1.125 -0.578125 C 1.3125 -0.628906 1.453125 -0.703125 1.546875 -0.796875 C 1.640625 -0.898438 1.703125 -1.046875 1.734375 -1.234375 C 1.765625 -1.421875 1.78125 -1.664062 1.78125 -1.96875 L 1.78125 -7.859375 C 1.78125 -8.148438 1.765625 -8.382812 1.734375 -8.5625 C 1.710938 -8.75 1.65625 -8.894531 1.5625 -9 C 1.476562 -9.113281 1.359375 -9.1875 1.203125 -9.21875 C 1.046875 -9.257812 0.84375 -9.289062 0.59375 -9.3125 L 0.59375 -9.8125 L 8.640625 -9.8125 L 8.734375 -7.3125 L 8.1875 -7.3125 C 8.132812 -7.675781 8.050781 -7.972656 7.9375 -8.203125 C 7.832031 -8.441406 7.679688 -8.628906 7.484375 -8.765625 C 7.285156 -8.898438 7.03125 -8.992188 6.71875 -9.046875 C 6.414062 -9.109375 6.035156 -9.140625 5.578125 -9.140625 L 4.140625 -9.140625 C 3.921875 -9.140625 3.785156 -9.109375 3.734375 -9.046875 C 3.679688 -8.992188 3.65625 -8.867188 3.65625 -8.671875 Z M 3.65625 -5.4375 "/></g></g></g><g fill="#000000" fill-opacity="1"><g transform="translate(15.863446, 70.811825)"><g><path d="M 6.625 -1.453125 L 7.640625 -4.328125 C 7.753906 -4.660156 7.8125 -4.910156 7.8125 -5.078125 C 7.8125 -5.234375 7.753906 -5.332031 7.640625 -5.375 C 7.535156 -5.425781 7.375 -5.453125 7.15625 -5.453125 L 7.15625 -5.75 L 9.28125 -5.75 L 9.28125 -5.453125 C 9.09375 -5.453125 8.921875 -5.40625 8.765625 -5.3125 C 8.609375 -5.21875 8.492188 -5.0625 8.421875 -4.84375 L 6.625 0.078125 L 5.953125 0.078125 L 4.65625 -3.875 L 3.171875 0.078125 L 2.546875 0.078125 L 0.96875 -4.28125 C 0.875 -4.539062 0.785156 -4.742188 0.703125 -4.890625 C 0.628906 -5.046875 0.546875 -5.164062 0.453125 -5.25 C 0.367188 -5.332031 0.269531 -5.382812 0.15625 -5.40625 C 0.0507812 -5.425781 -0.0664062 -5.4375 -0.203125 -5.4375 L -0.203125 -5.75 L 2.609375 -5.75 L 2.609375 -5.4375 C 2.359375 -5.4375 2.1875 -5.410156 2.09375 -5.359375 C 2 -5.316406 1.953125 -5.242188 1.953125 -5.140625 C 1.953125 -5.097656 1.953125 -5.054688 1.953125 -5.015625 C 1.960938 -4.984375 1.972656 -4.941406 1.984375 -4.890625 C 2.003906 -4.847656 2.023438 -4.789062 2.046875 -4.71875 C 2.066406 -4.644531 2.097656 -4.554688 2.140625 -4.453125 L 3.1875 -1.453125 L 4.390625 -4.75 C 4.335938 -4.882812 4.285156 -4.992188 4.234375 -5.078125 C 4.191406 -5.160156 4.132812 -5.226562 4.0625 -5.28125 C 4 -5.332031 3.925781 -5.367188 3.84375 -5.390625 C 3.757812 -5.410156 3.65625 -5.425781 3.53125 -5.4375 L 3.53125 -5.75 L 6.171875 -5.75 L 6.171875 -5.4375 C 5.960938 -5.4375 5.804688 -5.410156 5.703125 -5.359375 C 5.609375 -5.304688 5.5625 -5.207031 5.5625 -5.0625 C 5.5625 -4.988281 5.570312 -4.898438 5.59375 -4.796875 C 5.613281 -4.703125 5.644531 -4.585938 5.6875 -4.453125 Z M 6.625 -1.453125 "/></g></g></g><g fill="#000000" fill-opacity="1"><g transform="translate(25.966034, 70.811825)"><g><path d="M 4.03125 -0.6875 C 3.582031 -0.175781 3.019531 0.078125 2.34375 0.078125 C 2.03125 0.078125 1.75 0.03125 1.5 -0.0625 C 1.25 -0.164062 1.03125 -0.304688 0.84375 -0.484375 C 0.664062 -0.660156 0.523438 -0.867188 0.421875 -1.109375 C 0.328125 -1.359375 0.28125 -1.628906 0.28125 -1.921875 C 0.28125 -2.234375 0.332031 -2.515625 0.4375 -2.765625 C 0.539062 -3.023438 0.6875 -3.25 0.875 -3.4375 C 1.070312 -3.625 1.300781 -3.769531 1.5625 -3.875 C 1.820312 -3.976562 2.109375 -4.03125 2.421875 -4.03125 C 2.953125 -4.03125 3.363281 -3.890625 3.65625 -3.609375 C 3.945312 -3.328125 4.09375 -2.925781 4.09375 -2.40625 C 4.09375 -2.332031 4.082031 -2.285156 4.0625 -2.265625 C 4.039062 -2.242188 3.972656 -2.234375 3.859375 -2.234375 L 1.453125 -2.234375 C 1.429688 -2.191406 1.421875 -2.113281 1.421875 -2 C 1.421875 -1.507812 1.523438 -1.117188 1.734375 -0.828125 C 1.941406 -0.546875 2.226562 -0.40625 2.59375 -0.40625 C 2.800781 -0.40625 3.007812 -0.453125 3.21875 -0.546875 C 3.425781 -0.640625 3.628906 -0.773438 3.828125 -0.953125 Z M 2.578125 -2.65625 C 2.785156 -2.65625 2.914062 -2.664062 2.96875 -2.6875 C 3.03125 -2.707031 3.0625 -2.765625 3.0625 -2.859375 C 3.0625 -3.078125 3 -3.253906 2.875 -3.390625 C 2.75 -3.523438 2.585938 -3.59375 2.390625 -3.59375 C 2.179688 -3.59375 1.992188 -3.503906 1.828125 -3.328125 C 1.660156 -3.148438 1.550781 -2.925781 1.5 -2.65625 Z M 2.578125 -2.65625 "/></g></g></g><g fill="#000000" fill-opacity="1"><g transform="translate(31.271384, 70.811825)"><g><path d="M 1.6875 -1.640625 C 1.6875 -1.453125 1.710938 -1.28125 1.765625 -1.125 C 1.816406 -0.96875 1.882812 -0.832031 1.96875 -0.71875 C 2.0625 -0.601562 2.171875 -0.507812 2.296875 -0.4375 C 2.421875 -0.375 2.554688 -0.34375 2.703125 -0.34375 C 3.003906 -0.34375 3.226562 -0.476562 3.375 -0.75 C 3.53125 -1.03125 3.609375 -1.4375 3.609375 -1.96875 C 3.609375 -2.488281 3.53125 -2.882812 3.375 -3.15625 C 3.226562 -3.425781 3.003906 -3.5625 2.703125 -3.5625 C 2.523438 -3.5625 2.359375 -3.507812 2.203125 -3.40625 C 2.054688 -3.3125 1.941406 -3.179688 1.859375 -3.015625 C 1.742188 -2.773438 1.6875 -2.472656 1.6875 -2.109375 Z M 1.671875 -3.4375 L 1.703125 -3.4375 C 1.828125 -3.632812 1.988281 -3.78125 2.1875 -3.875 C 2.394531 -3.976562 2.628906 -4.03125 2.890625 -4.03125 C 3.148438 -4.03125 3.394531 -3.976562 3.625 -3.875 C 3.851562 -3.769531 4.050781 -3.625 4.21875 -3.4375 C 4.382812 -3.25 4.515625 -3.03125 4.609375 -2.78125 C 4.703125 -2.53125 4.75 -2.265625 4.75 -1.984375 C 4.75 -1.679688 4.695312 -1.40625 4.59375 -1.15625 C 4.488281 -0.90625 4.347656 -0.6875 4.171875 -0.5 C 3.992188 -0.320312 3.785156 -0.179688 3.546875 -0.078125 C 3.316406 0.0234375 3.070312 0.078125 2.8125 0.078125 C 2.53125 0.078125 2.269531 0.0234375 2.03125 -0.078125 C 1.789062 -0.179688 1.597656 -0.320312 1.453125 -0.5 L 0.890625 0 L 0.640625 0 L 0.640625 -4.4375 C 0.640625 -4.90625 0.601562 -5.226562 0.53125 -5.40625 C 0.519531 -5.4375 0.503906 -5.460938 0.484375 -5.484375 C 0.460938 -5.515625 0.429688 -5.539062 0.390625 -5.5625 C 0.359375 -5.582031 0.3125 -5.597656 0.25 -5.609375 C 0.1875 -5.617188 0.101562 -5.628906 0 -5.640625 L 0 -5.90625 L 1.671875 -6.203125 Z M 1.671875 -3.4375 "/></g></g></g><g fill="#000000" fill-opacity="1"><g transform="translate(37.241772, 70.811825)"><g><path d="M 0.640625 0 L 0.40625 0 L 0.40625 -1.359375 L 0.71875 -1.359375 C 0.800781 -1.003906 0.921875 -0.742188 1.078125 -0.578125 C 1.242188 -0.410156 1.453125 -0.328125 1.703125 -0.328125 C 1.890625 -0.328125 2.03125 -0.363281 2.125 -0.4375 C 2.226562 -0.519531 2.28125 -0.628906 2.28125 -0.765625 C 2.28125 -0.898438 2.21875 -1.03125 2.09375 -1.15625 C 1.96875 -1.289062 1.769531 -1.4375 1.5 -1.59375 C 1.113281 -1.789062 0.835938 -1.988281 0.671875 -2.1875 C 0.515625 -2.394531 0.4375 -2.628906 0.4375 -2.890625 C 0.4375 -3.046875 0.46875 -3.195312 0.53125 -3.34375 C 0.59375 -3.488281 0.675781 -3.613281 0.78125 -3.71875 C 0.882812 -3.820312 1.007812 -3.898438 1.15625 -3.953125 C 1.3125 -4.015625 1.476562 -4.046875 1.65625 -4.046875 C 1.800781 -4.046875 1.953125 -4.019531 2.109375 -3.96875 C 2.265625 -3.925781 2.398438 -3.863281 2.515625 -3.78125 L 2.640625 -3.96875 L 2.84375 -3.96875 L 2.84375 -2.84375 L 2.546875 -2.84375 C 2.429688 -3.125 2.3125 -3.328125 2.1875 -3.453125 C 2.070312 -3.578125 1.925781 -3.640625 1.75 -3.640625 C 1.601562 -3.640625 1.488281 -3.597656 1.40625 -3.515625 C 1.332031 -3.441406 1.296875 -3.34375 1.296875 -3.21875 C 1.296875 -3.082031 1.351562 -2.953125 1.46875 -2.828125 C 1.59375 -2.703125 1.796875 -2.566406 2.078125 -2.421875 C 2.273438 -2.304688 2.445312 -2.195312 2.59375 -2.09375 C 2.738281 -1.988281 2.851562 -1.882812 2.9375 -1.78125 C 3.03125 -1.675781 3.097656 -1.5625 3.140625 -1.4375 C 3.191406 -1.320312 3.21875 -1.195312 3.21875 -1.0625 C 3.21875 -0.894531 3.179688 -0.738281 3.109375 -0.59375 C 3.046875 -0.457031 2.953125 -0.335938 2.828125 -0.234375 C 2.710938 -0.140625 2.570312 -0.0625 2.40625 0 C 2.238281 0.0507812 2.054688 0.078125 1.859375 0.078125 C 1.640625 0.078125 1.4375 0.0507812 1.25 0 C 1.070312 -0.0625 0.921875 -0.148438 0.796875 -0.265625 Z M 0.640625 0 "/></g></g></g><g fill="#000000" fill-opacity="1"><g transform="translate(41.657915, 70.811825)"><g><path d="M 1.828125 -1.21875 C 1.828125 -1.019531 1.832031 -0.859375 1.84375 -0.734375 C 1.851562 -0.617188 1.878906 -0.53125 1.921875 -0.46875 C 1.960938 -0.40625 2.023438 -0.363281 2.109375 -0.34375 C 2.203125 -0.320312 2.320312 -0.304688 2.46875 -0.296875 L 2.46875 0 L 0.125 0 L 0.125 -0.296875 C 0.269531 -0.304688 0.382812 -0.320312 0.46875 -0.34375 C 0.5625 -0.363281 0.628906 -0.398438 0.671875 -0.453125 C 0.722656 -0.515625 0.753906 -0.601562 0.765625 -0.71875 C 0.773438 -0.832031 0.78125 -0.984375 0.78125 -1.171875 L 0.78125 -4.25 C 0.78125 -4.539062 0.773438 -4.769531 0.765625 -4.9375 C 0.765625 -5.113281 0.753906 -5.25 0.734375 -5.34375 C 0.710938 -5.40625 0.691406 -5.453125 0.671875 -5.484375 C 0.660156 -5.523438 0.628906 -5.554688 0.578125 -5.578125 C 0.535156 -5.597656 0.476562 -5.613281 0.40625 -5.625 C 0.34375 -5.632812 0.253906 -5.640625 0.140625 -5.640625 L 0.140625 -5.921875 L 1.8125 -6.203125 L 1.8125 -3.4375 L 1.84375 -3.4375 C 1.988281 -3.644531 2.15625 -3.796875 2.34375 -3.890625 C 2.539062 -3.984375 2.773438 -4.03125 3.046875 -4.03125 C 3.535156 -4.03125 3.914062 -3.878906 4.1875 -3.578125 C 4.3125 -3.429688 4.410156 -3.25 4.484375 -3.03125 C 4.554688 -2.820312 4.59375 -2.601562 4.59375 -2.375 L 4.59375 -1.21875 C 4.59375 -1.007812 4.597656 -0.847656 4.609375 -0.734375 C 4.617188 -0.617188 4.644531 -0.53125 4.6875 -0.46875 C 4.726562 -0.40625 4.789062 -0.363281 4.875 -0.34375 C 4.96875 -0.320312 5.085938 -0.304688 5.234375 -0.296875 L 5.234375 0 L 2.890625 0 L 2.890625 -0.296875 C 3.046875 -0.304688 3.164062 -0.320312 3.25 -0.34375 C 3.34375 -0.363281 3.410156 -0.398438 3.453125 -0.453125 C 3.503906 -0.515625 3.535156 -0.601562 3.546875 -0.71875 C 3.554688 -0.832031 3.5625 -0.984375 3.5625 -1.171875 L 3.5625 -2.09375 C 3.5625 -2.625 3.503906 -3 3.390625 -3.21875 C 3.273438 -3.4375 3.078125 -3.546875 2.796875 -3.546875 C 2.503906 -3.546875 2.269531 -3.4375 2.09375 -3.21875 C 2.007812 -3.101562 1.941406 -2.957031 1.890625 -2.78125 C 1.847656 -2.613281 1.828125 -2.425781 1.828125 -2.21875 Z M 1.828125 -1.21875 "/></g></g></g><g fill="#000000" fill-opacity="1"><g transform="translate(47.927191, 70.811825)"><g><path d="M 2.453125 -4.03125 C 2.742188 -4.03125 3.023438 -3.976562 3.296875 -3.875 C 3.566406 -3.78125 3.800781 -3.640625 4 -3.453125 C 4.195312 -3.273438 4.351562 -3.0625 4.46875 -2.8125 C 4.59375 -2.570312 4.65625 -2.304688 4.65625 -2.015625 C 4.65625 -1.703125 4.59375 -1.421875 4.46875 -1.171875 C 4.351562 -0.921875 4.195312 -0.703125 4 -0.515625 C 3.800781 -0.328125 3.566406 -0.179688 3.296875 -0.078125 C 3.023438 0.0234375 2.742188 0.078125 2.453125 0.078125 C 2.160156 0.078125 1.878906 0.0234375 1.609375 -0.078125 C 1.347656 -0.179688 1.117188 -0.320312 0.921875 -0.5 C 0.722656 -0.6875 0.566406 -0.90625 0.453125 -1.15625 C 0.335938 -1.414062 0.28125 -1.703125 0.28125 -2.015625 C 0.28125 -2.304688 0.335938 -2.578125 0.453125 -2.828125 C 0.566406 -3.078125 0.722656 -3.289062 0.921875 -3.46875 C 1.117188 -3.644531 1.347656 -3.78125 1.609375 -3.875 C 1.878906 -3.976562 2.160156 -4.03125 2.453125 -4.03125 Z M 2.453125 -3.59375 C 2.296875 -3.59375 2.15625 -3.554688 2.03125 -3.484375 C 1.914062 -3.410156 1.8125 -3.300781 1.71875 -3.15625 C 1.632812 -3.019531 1.566406 -2.851562 1.515625 -2.65625 C 1.472656 -2.457031 1.453125 -2.238281 1.453125 -2 C 1.453125 -1.75 1.472656 -1.523438 1.515625 -1.328125 C 1.566406 -1.128906 1.632812 -0.957031 1.71875 -0.8125 C 1.8125 -0.675781 1.914062 -0.566406 2.03125 -0.484375 C 2.15625 -0.410156 2.296875 -0.375 2.453125 -0.375 C 2.609375 -0.375 2.75 -0.410156 2.875 -0.484375 C 3 -0.566406 3.101562 -0.675781 3.1875 -0.8125 C 3.28125 -0.957031 3.351562 -1.128906 3.40625 -1.328125 C 3.457031 -1.535156 3.484375 -1.757812 3.484375 -2 C 3.484375 -2.238281 3.457031 -2.453125 3.40625 -2.640625 C 3.351562 -2.835938 3.28125 -3.007812 3.1875 -3.15625 C 3.101562 -3.300781 3 -3.410156 2.875 -3.484375 C 2.75 -3.554688 2.609375 -3.59375 2.453125 -3.59375 Z M 2.453125 -3.59375 "/></g></g></g><g fill="#000000" fill-opacity="1"><g transform="translate(53.792968, 70.811825)"><g><path d="M 1.625 -3.46875 L 1.65625 -3.46875 C 1.988281 -3.84375 2.414062 -4.03125 2.9375 -4.03125 C 3.226562 -4.03125 3.492188 -3.976562 3.734375 -3.875 C 3.972656 -3.78125 4.179688 -3.640625 4.359375 -3.453125 C 4.535156 -3.273438 4.671875 -3.054688 4.765625 -2.796875 C 4.867188 -2.546875 4.921875 -2.273438 4.921875 -1.984375 C 4.921875 -1.679688 4.867188 -1.40625 4.765625 -1.15625 C 4.671875 -0.90625 4.535156 -0.6875 4.359375 -0.5 C 4.191406 -0.320312 3.988281 -0.179688 3.75 -0.078125 C 3.507812 0.0234375 3.242188 0.078125 2.953125 0.078125 C 2.472656 0.078125 2.109375 -0.0859375 1.859375 -0.421875 L 1.828125 -0.421875 L 1.828125 0.625 C 1.828125 0.820312 1.832031 0.976562 1.84375 1.09375 C 1.863281 1.21875 1.90625 1.3125 1.96875 1.375 C 2.039062 1.4375 2.132812 1.476562 2.25 1.5 C 2.363281 1.53125 2.519531 1.546875 2.71875 1.546875 L 2.71875 1.859375 L 0.140625 1.859375 L 0.140625 1.546875 C 0.273438 1.546875 0.382812 1.53125 0.46875 1.5 C 0.550781 1.476562 0.613281 1.4375 0.65625 1.375 C 0.707031 1.3125 0.742188 1.222656 0.765625 1.109375 C 0.785156 0.992188 0.796875 0.847656 0.796875 0.671875 L 0.796875 -2.109375 C 0.796875 -2.335938 0.789062 -2.550781 0.78125 -2.75 C 0.769531 -2.957031 0.753906 -3.109375 0.734375 -3.203125 C 0.710938 -3.316406 0.65625 -3.394531 0.5625 -3.4375 C 0.476562 -3.476562 0.332031 -3.5 0.125 -3.5 L 0.125 -3.796875 L 1.625 -4 Z M 2.890625 -3.609375 C 2.734375 -3.609375 2.582031 -3.570312 2.4375 -3.5 C 2.289062 -3.425781 2.175781 -3.332031 2.09375 -3.21875 C 2.007812 -3.113281 1.945312 -2.972656 1.90625 -2.796875 C 1.863281 -2.628906 1.84375 -2.441406 1.84375 -2.234375 L 1.84375 -1.734375 C 1.84375 -1.378906 1.925781 -1.078125 2.09375 -0.828125 C 2.28125 -0.554688 2.546875 -0.421875 2.890625 -0.421875 C 3.203125 -0.421875 3.429688 -0.546875 3.578125 -0.796875 C 3.722656 -1.046875 3.796875 -1.4375 3.796875 -1.96875 C 3.796875 -3.0625 3.492188 -3.609375 2.890625 -3.609375 Z M 2.890625 -3.609375 "/></g></g></g></svg>